<?xml version="1.0" encoding="UTF-8" standalone="no"?><!DOCTYPE svg PUBLIC "-//W3C//DTD SVG 1.1//EN" "http://www.w3.org/Graphics/SVG/1.1/DTD/svg11.dtd"><svg width="100%" height="100%" viewBox="0 0 1435 273" version="1.1" xmlns="http://www.w3.org/2000/svg" xmlns:xlink="http://www.w3.org/1999/xlink" xml:space="preserve" xmlns:serif="http://www.serif.com/" style="fill-rule:evenodd;clip-rule:evenodd;stroke-linejoin:round;stroke-miterlimit:2;"><path d="M-0,207.629l-0,-195.415c-0,-3.014 1.341,-4.522 4.024,-4.522l71.256,0c31.249,0 55.356,8.792 72.322,26.374c14.541,15.07 22.851,35.798 24.929,62.185l1.204,0c0.268,1.877 0.268,3.486 0.536,5.362l-1.407,0c0.124,2.713 0.186,5.483 0.186,8.308c0,12.657 -1.261,24.187 -3.784,34.59l7.686,-0c-0.536,1.877 -0.804,3.485 -1.34,5.362l-7.788,0c-2.986,10.08 -7.252,19.017 -12.797,26.811l3.157,-0c-1.34,1.877 -2.681,3.753 -4.021,5.362l-3.306,0c-1.048,1.235 -2.133,2.437 -3.255,3.605c-6.369,6.631 -13.743,12.018 -22.124,16.16c-15.227,8.404 -33.856,12.408 -54.697,12.408l-60.057,0l0,-2.069l-6.7,0c-2.683,0 -4.024,-1.507 -4.024,-4.521Zm50.673,-151.962l-0,3.049l8.043,-0l-0,37.535l5.362,0l0,5.362l-5.362,0l-0,5.363l2.681,-0l0,5.362l-2.681,-0l-0,32.173l10.724,-0l0,5.362l-10.724,0l-0,5.362l-5.362,0l-0,5.362l5.362,0l-0,3.579l11.83,-0c17.202,-0 30.262,-4.522 39.179,-13.564c3.022,-3.065 5.532,-6.649 7.53,-10.752c1.955,-7.389 2.858,-16.106 2.858,-26.45l-0,-1.072l2.681,-0c0,-1.877 0,-3.754 -0.268,-5.362l-2.681,-0c-0,-1.877 -0.268,-3.754 -0.268,-5.363l3.183,0c-0.158,-1.842 -0.37,-3.63 -0.637,-5.362l-3.083,0c-2.255,-15.173 -7.804,-25.485 -15.686,-32.255c-3.315,-2.193 -7.026,-3.953 -11.135,-5.28l-4.815,-0c-1.768,-0.884 -3.585,-1.648 -5.456,-2.305c-3.574,-0.496 -7.374,-0.744 -11.402,-0.744l-19.873,0Zm172.099,99.568l-35.991,-86.004c-0.316,-1.005 -0.474,-1.675 -0.474,-2.01c0,-0.837 0.355,-1.549 1.066,-2.135c0.203,-0.167 0.422,-0.311 0.658,-0.431l-1.159,-2.99l47.992,0l1.664,5.112c0.151,0.218 0.297,0.45 0.44,0.696l10.606,28.778l3.912,0l1.609,5.362l-3.545,0l1.976,5.363l0.765,-0l1.608,5.362l-0.397,-0l11.857,32.173l0.98,-0l27.204,-73.818l2.45,-9.028l45.578,0l-1.09,3.271c0.06,0.048 0.118,0.098 0.175,0.15c0.631,0.586 0.947,1.298 0.947,2.135l-0.474,2.01l-10.416,27.02l4.692,0l-1.877,5.362l-4.882,0l-2.068,5.363l2.392,-0l-1.877,5.362l-2.582,-0l-0.871,2.259l-10.22,29.914l10.724,-0l-1.877,5.362l-10.724,0l-1.877,5.362l-1.692,0l-2.067,5.362l1.882,0l-1.876,5.363l-2.074,-0l-2.067,5.362l2.264,-0l-1.877,5.362l5.362,-0l-1.876,5.362l-5.363,0l-11.26,32.441c-1.341,3.754 -2.681,7.239 -4.29,10.457l10.724,-0c-0.804,1.876 -1.608,3.753 -2.413,5.362l-10.724,-0c-3.135,6.646 -6.446,12.515 -10.073,17.607l-8.291,21.506c-0.947,2.344 -2.525,3.516 -4.735,3.516l-38.823,0c-0.109,0 -0.215,-0.002 -0.319,-0.007c-9.123,-0.096 -15.01,-1.154 -21.141,-2.942l8.58,-36.195c2.681,0.536 6.702,1.877 10.188,1.877c4.948,-0 9.081,-0.816 12.476,-2.37l11.963,-31.614l-1.287,-3.234l-11.353,-27.128l-7.51,-0l-2.144,-5.362l7.41,-0l-2.244,-5.363l-4.63,0l-2.145,-5.362l4.531,0Zm316.867,39.694c-4.285,-4.796 -7.918,-10.359 -10.9,-16.687c-5.445,-11.555 -8.168,-24.951 -8.168,-40.189c0,-15.238 2.683,-28.634 8.049,-40.188c3.14,-6.76 7.049,-12.632 11.728,-17.615c2.896,-3.083 6.086,-5.827 9.571,-8.23c0.509,-0.351 1.024,-0.694 1.546,-1.031c6.933,-4.472 14.587,-7.373 22.962,-8.702c3.541,-0.562 7.21,-0.843 11.009,-0.843c17.36,0 31.327,6.698 41.901,20.094l0.474,-13.061c-0,-1.339 0.394,-2.386 1.183,-3.139c0.789,-0.754 1.815,-1.131 3.078,-1.131l32.905,0c1.263,0 2.289,0.377 3.078,1.131c0.789,0.753 1.183,1.8 1.183,3.139l0,76.034l8.006,-0l-0,5.362l-8.006,0l0,26.811l2.644,-0l-0,5.362l-2.644,0l0,25.583c0,1.34 -0.394,2.428 -1.183,3.266c-0.439,0.465 -0.951,0.801 -1.536,1.008l0,2.316l-38.875,0l-3.218,-15.282l-0.833,0c-5.203,5.512 -11.119,9.597 -17.749,12.257c-8.082,4.255 -16.836,6.779 -26.46,6.779c-18.708,-0 -32.581,-9.347 -39.745,-23.044Zm79.049,-79.362c-0.303,-0.382 -0.616,-0.757 -0.939,-1.124c-5.287,-6.029 -12.191,-9.043 -20.714,-9.043c-8.522,0 -15.426,3.014 -20.713,9.043c-2.862,3.263 -4.95,7.066 -6.262,11.408c-1.113,3.68 -1.669,7.747 -1.669,12.202c0,9.712 2.644,17.624 7.931,23.736c1.016,1.175 2.092,2.237 3.228,3.186c4.773,3.988 10.601,5.982 17.485,5.982c5.168,0 9.74,-1.123 13.718,-3.37l-0,-1.627l2.514,-0c1.605,-1.181 3.099,-2.571 4.482,-4.171c0.338,-0.39 0.664,-0.787 0.98,-1.192l-5.295,0l-0,-5.362l5.362,0l0,-5.362l5.336,0c0.434,-1.51 0.777,-3.083 1.029,-4.717c0.346,-2.25 0.519,-4.617 0.519,-7.103c-0,-9.119 -2.331,-16.615 -6.992,-22.486Zm406.64,50.393c-2.398,-8.491 -3.597,-17.793 -3.597,-27.907c-0,-15.238 2.683,-28.634 8.049,-40.188c2.783,-5.994 6.172,-11.29 10.167,-15.887c3.705,-4.264 7.931,-7.927 12.677,-10.989c9.864,-6.363 21.188,-9.545 33.971,-9.545c17.36,0 31.328,6.698 41.901,20.094l0.474,-13.061c-0,-1.339 0.395,-2.386 1.184,-3.139c0.789,-0.754 1.815,-1.131 3.077,-1.131l32.906,0c1.262,0 2.288,0.377 3.077,1.131c0.789,0.753 1.184,1.8 1.184,3.139l-0,76.034l5.529,-0l-0,5.362l-5.529,0l-0,26.811l0.167,-0l-0,5.362l-0.167,0l-0,25.583c-0,1.34 -0.395,2.428 -1.184,3.266c-0.789,0.837 -1.815,1.255 -3.077,1.255l-0.934,0l-0,2.069l-38.876,0l-2.926,-13.898c-6.743,6.67 -14.63,11.053 -23.66,13.15c-6.729,2.863 -13.919,4.502 -21.674,4.502c-21.749,-0 -36.963,-12.633 -42.699,-30.046c-2.017,-3 -3.841,-6.228 -5.47,-9.685c-1.054,-2.238 -2.007,-4.545 -2.857,-6.92l-2.328,-0c0,-1.877 0,-3.486 0.269,-5.362l0.346,-0Zm91.638,-53.529c-4.999,-4.687 -11.256,-7.031 -18.771,-7.031c-8.522,0 -15.427,3.014 -20.714,9.043c-2.635,3.005 -4.614,6.467 -5.936,10.387c-1.33,3.945 -1.995,8.352 -1.995,13.223c0,8.302 1.932,15.289 5.795,20.96c0.368,0.54 0.753,1.068 1.156,1.584l3.175,0c-0.392,0.784 -0.72,1.63 -0.984,2.51c5.116,5.234 11.617,7.85 19.503,7.85c4.126,0 7.873,-0.716 11.241,-2.149l-0,-2.848l4.99,-0c1.067,-0.785 2.084,-1.662 3.053,-2.632l0,-2.731l-5.362,0l0,-5.362l5.362,0l0,-5.362l7.812,0c0.469,-1.629 0.831,-3.331 1.087,-5.106c0.308,-2.133 0.461,-4.371 0.461,-6.714c0,-9.712 -2.643,-17.582 -7.93,-23.61c-0.625,-0.713 -1.273,-1.383 -1.943,-2.012Zm-756.425,58.891l-4.224,-0l0,-5.362l4.224,-0l0,-5.363l-1.543,0l0,-5.362l1.543,0l0,-86.758c0,-1.339 0.395,-2.386 1.184,-3.139c0.695,-0.664 1.573,-1.035 2.635,-1.115l0,-2.558l38.876,0l2.901,15.844c4.371,-4.589 9.492,-8.227 15.362,-10.916c3.545,-1.623 7.292,-2.862 11.242,-3.718c4.338,-1.893 8.968,-3.332 13.929,-4.159l-8.043,-0c2.949,-0.536 6.166,-0.804 9.652,-0.804c3.485,-0 6.97,0.268 9.92,0.804l8.043,-0c19.572,3.217 30.832,16.623 35.122,37.535l5.362,0c0.537,1.877 0.805,3.486 1.073,5.362l-5.362,0c0.268,1.609 0.268,3.486 0.536,5.363l2.681,-0c0.268,1.608 0.536,3.485 0.536,5.362l-2.681,-0c0.268,2.413 0.268,4.826 0.268,7.507l0,24.666l10.725,-0l-0,5.362l-10.725,0l0,5.362l-5.222,0l0,5.362l5.222,0l0,5.363l-5.222,-0l0,5.362l5.222,-0l0,5.362l5.362,-0l0,5.362l-5.362,0l0,32.173l-47.723,0l-0,-2.069l-0.584,0c-1.262,0 -2.288,-0.418 -3.077,-1.255c-0.789,-0.838 -1.184,-1.926 -1.184,-3.266l0,-36.307l-3.199,-0l0,-5.362l3.199,-0l0,-5.363l-0.517,0l-0,-5.362l0.517,0l0,-20.698c0,-10.215 -1.578,-17.624 -4.734,-22.229c-3.157,-4.605 -8.207,-6.908 -15.151,-6.908c-7.102,0 -12.784,2.805 -17.045,8.415c-0.808,1.064 -1.54,2.217 -2.195,3.459l-0,27.237l10.724,-0l0,5.362l-10.724,0l-0,5.362l-4.197,0l0,5.362l4.197,0l-0,5.363l-4.197,-0l0,5.362l4.197,-0l-0,5.362l5.362,-0l0,5.362l-5.362,0l-0,32.173l-47.724,0l0,-2.087c-1.062,-0.088 -1.94,-0.5 -2.635,-1.237c-0.789,-0.838 -1.184,-1.926 -1.184,-3.266l0,-36.307Zm338.999,-134.055l-7.014,0l0,-5.362l7.014,-0l-0,-24.213c-0,-1.339 0.395,-2.428 1.184,-3.265c0.671,-0.712 1.513,-1.121 2.526,-1.228l0,-3.199l47.724,0l-0,31.905l-4.088,-0l0,5.362l4.088,0l-0,14.21l-0.268,1.877l-3.82,-0l0,5.362l3.552,-0l-0.75,14.498c3.206,-2.714 6.646,-4.958 10.318,-6.733c6.348,-3.872 13.216,-6.574 20.192,-7.765l-8.043,-0c2.949,-0.536 5.898,-0.804 8.847,-0.804c3.486,-0 6.703,0.268 9.92,0.804l8.043,-0c20.109,3.217 35.123,16.891 43.166,37.535l5.362,0c0.536,1.609 1.341,3.486 1.877,5.362l-5.362,0c0.536,1.877 1.072,3.486 1.608,5.363l2.682,-0c0.268,1.876 0.804,3.485 1.072,5.362l-2.681,-0c1.34,6.971 2.145,14.746 2.145,22.789c-0,3.217 -0,6.435 -0.268,9.384l10.724,-0c-0.268,1.877 -0.268,3.753 -0.536,5.362l-10.725,0c-0.268,1.877 -0.536,3.485 -0.804,5.362l-0.29,0c-0.284,1.82 -0.615,3.607 -0.994,5.362l0.212,0c-0.268,1.877 -0.805,3.486 -1.341,5.363l-0.203,-0c-0.515,1.824 -1.086,3.612 -1.712,5.362l0.306,-0c-0.804,1.877 -1.34,3.753 -2.144,5.362l5.362,-0c-0.805,1.877 -1.609,3.753 -2.413,5.362l-5.362,0c-12.065,23.326 -32.71,35.927 -53.89,35.927c-9.44,-0 -19.146,-3.457 -28.182,-10.09c-4.49,-2.665 -8.54,-6.005 -12.148,-10.018l-0.155,-0l-3.753,16.354l-37.268,0l0,-2.097c-1.013,-0.106 -1.855,-0.515 -2.526,-1.227c-0.789,-0.838 -1.184,-1.926 -1.184,-3.266l-0,-36.307l-4.333,-0l0,-5.362l4.333,-0l-0,-5.363l-1.652,0l0,-5.362l1.652,0l-0,-96.519l-4.333,-0l0,-5.362l4.333,-0l-0,-16.087Zm51.434,124.459c0.018,0.021 0.037,0.042 0.055,0.063c5.287,6.112 12.192,9.168 20.714,9.168c4.849,0 9.175,-0.989 12.977,-2.968c0.376,-0.628 0.742,-1.298 1.108,-2.029l2.146,-0c1.605,-1.181 3.099,-2.571 4.483,-4.171c0.337,-0.39 0.664,-0.787 0.98,-1.192l-2.515,0c0.536,-1.608 1.073,-3.485 1.609,-5.362l4.255,0c0.695,-1.422 1.29,-2.912 1.784,-4.471c0.042,-0.296 0.085,-0.594 0.127,-0.891l0.142,0c0.491,-1.708 0.866,-3.495 1.123,-5.362l-0.46,-0c0.268,-2.681 0.268,-5.362 0.268,-8.312c-0,-2.422 -0.064,-4.716 -0.192,-6.89c-1.149,-5.809 -3.523,-10.764 -7.121,-14.866c-5.287,-6.029 -12.192,-9.043 -20.714,-9.043c-7.176,0 -13.206,2.137 -18.088,6.412l-0,0.526l-0.583,-0c-0.706,0.655 -1.387,1.357 -2.043,2.105c-0.018,0.021 -0.037,0.042 -0.055,0.063l-0,30.005l10.724,-0l0,5.362l-10.724,0l-0,5.362l-4.274,0c0.934,1.911 2.051,3.699 3.349,5.362l0.925,0l-0,1.129Zm117.346,4.234c-2.677,-8.536 -4.015,-17.839 -4.015,-27.907c-0,-14.903 2.998,-28.173 8.996,-39.811c5.997,-11.638 14.519,-20.681 25.566,-27.127c4.748,-2.771 9.832,-4.946 15.25,-6.526c6.032,-2.889 12.403,-4.873 18.903,-5.873l-8.043,-0c3.485,-0.536 6.971,-0.804 10.456,-0.804c4.022,-0 8.043,0.268 11.529,0.804l8.043,-0c23.862,3.485 39.68,17.695 47.723,37.535l5.363,0c0.536,1.609 1.34,3.486 1.876,5.362l-5.362,0c0.536,1.877 1.073,3.486 1.609,5.363l2.681,-0c0.268,1.876 0.804,3.485 1.072,5.362l-2.681,-0c1.073,5.898 1.609,12.333 1.609,19.036c-0,4.825 -0.268,9.383 -0.804,13.137l10.724,-0c-0.268,2.145 -0.536,3.753 -0.804,5.362l-10.725,0c-0.268,0.804 -0.268,1.609 -0.536,2.145l-89.548,-0l0.804,3.217l-4.628,0c0.665,1.937 1.441,3.725 2.328,5.362l3.909,0c0.804,1.877 1.876,3.754 2.949,5.363l-3.082,-0c0.559,0.612 1.145,1.189 1.757,1.732c1.694,1.503 3.562,2.713 5.605,3.63l0.01,-0c0.002,0.002 0.004,0.005 0.006,0.007c3.187,1.427 6.797,2.14 10.831,2.14c10.574,0 18.229,-3.516 22.963,-10.549c1.578,-1.842 3.472,-2.512 5.682,-2.01l33.616,12.057c1.736,0.502 2.604,1.591 2.604,3.265c-0,0.67 -0.237,1.507 -0.711,2.512c-1.655,3.287 -3.499,6.348 -5.531,9.181l6.951,12.621c-15.819,11.26 -36.731,17.427 -54.427,17.427c-10.282,-0 -19.99,-1.623 -28.835,-4.749c-7.66,-1.568 -14.705,-4.228 -21.136,-7.981c-11.047,-6.447 -19.569,-15.489 -25.566,-27.127c-1.136,-2.203 -2.164,-4.468 -3.084,-6.794l-1.275,-0c-0.804,-1.609 -1.341,-3.486 -1.877,-5.362l1.255,-0Zm55.207,-61.856c-0.701,0.868 -1.368,1.804 -2.036,2.872l2.681,-0c-1.072,1.608 -1.876,3.485 -2.681,5.362l-2.681,-0c-1.072,2.413 -1.876,5.362 -2.413,8.311l42.973,0c-1.413,-5.998 -3.865,-10.704 -7.356,-14.118c-4.025,-3.936 -9.115,-5.903 -15.27,-5.903c-1.748,-0 -3.412,0.134 -4.99,0.402c-0.207,0.189 -0.411,0.383 -0.611,0.583l-1.986,0c-2.037,0.577 -3.914,1.408 -5.63,2.491Zm283.907,51.131c-0.071,-1.914 -0.106,-3.874 -0.106,-5.879l-0,-42.198l-16.571,0c-1.263,0 -2.289,-0.418 -3.078,-1.255c-0.789,-0.838 -1.183,-1.926 -1.183,-3.266l-0,-33.406c-0,-1.207 0.32,-2.209 0.96,-3.008l-0,-2.681l19.872,-1.581l-0,-3.245l-4.054,-0l0.804,-5.362l3.25,-0l-0,-16.087l-3.786,0l0.805,-5.362l2.981,-0l-0,-1.858c-0,-1.339 0.394,-2.428 1.184,-3.265c0.789,-0.837 1.814,-1.256 3.077,-1.256l4.279,0l0.543,-4.345l39.413,-0l-0,10.724l-1.15,-0l0,5.362l1.15,0l-0,16.087l-1.15,-0l0,5.362l1.15,-0l-0,2.949l35.926,0l0,34.586l5.362,0l0,2.681l-10.479,0l-0,3.705c-0,1.34 -0.395,2.428 -1.184,3.266c-0.789,0.837 -1.815,1.255 -3.077,1.255l-23.867,0l-0,5.18l-2.681,-0l-0,32.173l10.724,-0l-0,5.362l-10.724,0l-0,5.362l-1.141,0c0.031,1.956 0.145,3.744 0.343,5.362l0.798,0c0.268,1.877 0.536,3.754 1.072,5.363l-0.71,-0c0.284,0.826 0.609,1.571 0.974,2.234c1.657,3.015 4.3,4.522 7.93,4.522c1.578,-0 2.959,-0.419 4.143,-1.256c1.184,-0.838 2.328,-2.261 3.433,-4.27c1.104,-1.172 2.051,-1.759 2.84,-1.759c0.632,0 1.421,0.252 2.368,0.754l26.514,12.057c1.736,0.837 2.604,2.093 2.604,3.767c-0,0.67 -0.316,1.675 -0.947,3.014c-3.107,6.592 -7.062,12.085 -11.867,16.478l2.398,10.841c-8.043,2.413 -19.036,5.631 -34.586,5.631c-28.956,-0 -44.774,-13.942 -50.941,-35.927l0.553,0c-0.541,-1.721 -1.031,-3.509 -1.469,-5.362l-0.156,-0c-0.268,-1.609 -0.804,-3.485 -1.073,-5.362l-8.043,-0c-0.268,-1.877 -0.268,-3.486 -0.536,-5.362l7.931,-0c-0.21,-1.742 -0.384,-3.529 -0.523,-5.363l-4.995,0l-0,-5.362l4.696,0Zm189.865,56.652c-9.212,3.899 -20.48,6.086 -33.696,6.086c-19.84,-0 -43.165,-8.58 -58.715,-21.449l9.465,-13.45c-1.069,-2.173 -2.023,-4.454 -2.863,-6.842c-0.158,-0.335 -0.237,-0.921 -0.237,-1.758c-0,-1.675 1.026,-2.763 3.077,-3.265l0.662,-0.148l3.033,-4.297c1.254,0.94 2.507,1.88 3.815,2.767l23.976,-5.355l1.42,-0.252c1.42,0 2.762,0.921 4.024,2.763c2.21,3.852 5.13,6.782 8.759,8.792c3.63,2.009 7.734,3.014 12.31,3.014c4.043,-0 7.234,-0.603 9.572,-1.809l-0.602,-0c0.804,-1.341 1.34,-3.485 1.34,-5.362l-8.043,-0l-0,-0.536c-0,-1.877 -0.536,-3.486 -1.609,-4.826l8.044,-0c-0.982,-1.571 -2.539,-2.855 -4.356,-4.061c-1.19,-0.44 -2.514,-0.874 -3.971,-1.302l-3.47,0c-1.427,-0.832 -3.065,-1.611 -4.843,-2.385c-17.743,-5.133 -30.511,-12.74 -38.303,-22.82c-6.145,-5.9 -10.742,-13.322 -12.085,-23.054l2.681,-0c-0.268,-1.609 -0.536,-3.486 -0.536,-5.362l-2.681,-0l0,-0.805c0,-1.608 0,-2.949 0.268,-4.558l3.528,0c0.222,-1.832 0.557,-3.62 1.005,-5.362l-3.729,0c4.29,-20.108 20.913,-34.05 45.847,-37.535l-8.043,-0c3.753,-0.536 7.775,-0.804 12.065,-0.804c4.021,-0 8.043,0.268 11.797,0.804l8.043,-0c17.963,2.413 31.905,10.456 42.629,18.768l-3.591,4.834c3.451,4.641 6.272,10.075 8.463,16.3c0.158,0.503 0.316,1.089 0.473,1.759c0,1.842 -1.104,3.014 -3.314,3.516l-30.538,7.535l-0.947,0c-1.736,0 -3.078,-1.004 -4.025,-3.014c-2.051,-3.516 -4.458,-6.153 -7.22,-7.912c-2.762,-1.758 -6.115,-2.637 -10.061,-2.637c-3.314,-0 -5.997,0.628 -8.049,1.884c-2.051,1.256 -3.077,3.139 -3.077,5.651c-0,2.512 1.262,4.689 3.787,6.531c2.526,1.842 6.471,3.433 11.837,4.772l4.971,1.256c17.834,4.856 30.381,11.177 37.641,18.964c2.143,2.299 3.971,4.829 5.481,7.588l2.191,-0c1.34,1.609 2.413,3.485 3.217,5.362l-2.976,0c1.984,5.386 2.976,11.494 2.976,18.321c0,9.378 -2.564,17.583 -7.694,24.616c-5.129,7.033 -12.231,12.475 -21.305,16.326c-2.507,1.064 -5.113,1.981 -7.818,2.751Z" style="fill:#fff;"/></svg>