<?xml version="1.0" encoding="UTF-8" standalone="no"?><!DOCTYPE svg PUBLIC "-//W3C//DTD SVG 1.1//EN" "http://www.w3.org/Graphics/SVG/1.1/DTD/svg11.dtd"><svg width="100%" height="100%" viewBox="0 0 1771 434" version="1.1" xmlns="http://www.w3.org/2000/svg" xmlns:xlink="http://www.w3.org/1999/xlink" xml:space="preserve" xmlns:serif="http://www.serif.com/" style="fill-rule:evenodd;clip-rule:evenodd;stroke-linejoin:round;stroke-miterlimit:2;"><rect id="画板1" x="0" y="0" width="1770.83" height="433.333" style="fill:none;"/><g id="画板11" serif:id="画板1"><path d="M124.552,287.828l0,-195.415c0,-3.014 1.342,-4.521 4.025,-4.521l71.256,-0c31.248,-0 55.355,8.791 72.321,26.373c14.541,15.07 22.851,35.798 24.929,62.185l1.204,0c0.268,1.877 0.268,3.486 0.536,5.362l-1.407,0c0.124,2.713 0.187,5.483 0.187,8.309c-0,12.656 -1.262,24.186 -3.785,34.589l7.686,-0c-0.536,1.877 -0.804,3.485 -1.34,5.362l-7.788,0c-2.986,10.08 -7.252,19.017 -12.797,26.811l3.158,0c-1.341,1.877 -2.681,3.754 -4.022,5.362l-3.306,0c-1.048,1.235 -2.133,2.437 -3.255,3.605c-6.368,6.632 -13.743,12.018 -22.124,16.16c-15.227,8.404 -33.856,12.408 -54.697,12.408l-60.056,0l-0,-2.069l-6.7,0c-2.683,0 -4.025,-1.507 -4.025,-4.521Zm50.673,-151.962l-0,3.049l8.043,-0l0,37.535l5.362,0l0,5.362l-5.362,0l0,5.363l2.681,-0l0,5.362l-2.681,-0l0,32.173l10.725,-0l-0,5.362l-10.725,0l0,5.362l-5.362,0l0,5.362l5.362,0l0,3.579l11.83,-0c17.203,-0 30.262,-4.521 39.179,-13.564c3.022,-3.065 5.532,-6.649 7.53,-10.752c1.955,-7.389 2.858,-16.106 2.858,-26.45l0,-1.072l2.681,-0c0,-1.877 0,-3.754 -0.268,-5.362l-2.681,-0c0,-1.877 -0.268,-3.754 -0.268,-5.363l3.183,0c-0.157,-1.842 -0.369,-3.63 -0.636,-5.362l-3.083,0c-2.256,-15.173 -7.804,-25.485 -15.687,-32.255c-3.314,-2.193 -7.026,-3.953 -11.134,-5.28l-4.816,-0c-1.768,-0.884 -3.584,-1.648 -5.456,-2.305c-3.573,-0.496 -7.374,-0.744 -11.402,-0.744l-19.873,0Zm172.1,99.568l-35.992,-86.004c-0.316,-1.005 -0.473,-1.675 -0.473,-2.01c-0,-0.837 0.355,-1.548 1.065,-2.135c0.203,-0.167 0.423,-0.311 0.658,-0.431l-1.159,-2.99l47.992,0l1.664,5.112c0.151,0.218 0.297,0.45 0.44,0.696l10.606,28.778l3.913,0l1.608,5.362l-3.545,0l1.976,5.363l0.765,-0l1.609,5.362l-0.398,-0l11.857,32.173l0.98,-0l27.204,-73.817l2.45,-9.029l45.578,0l-1.09,3.271c0.06,0.048 0.119,0.098 0.175,0.15c0.631,0.587 0.947,1.298 0.947,2.135l-0.473,2.01l-10.417,27.02l4.692,0l-1.877,5.362l-4.882,0l-2.067,5.363l2.391,-0l-1.876,5.362l-2.583,-0l-0.87,2.259l-10.221,29.914l10.724,-0l-1.876,5.362l-10.725,0l-1.877,5.362l-1.692,0l-2.067,5.362l1.883,0l-1.877,5.363l-2.073,-0l-2.067,5.362l2.263,-0l-1.877,5.362l5.363,0l-1.877,5.362l-5.362,0l-11.261,32.441c-1.341,3.754 -2.681,7.239 -4.29,10.457l10.725,-0c-0.805,1.876 -1.609,3.753 -2.413,5.362l-10.725,-0c-3.135,6.646 -6.446,12.515 -10.073,17.607l-8.291,21.506c-0.947,2.344 -2.525,3.516 -4.734,3.516l-38.824,0c-0.109,0 -0.215,-0.002 -0.319,-0.007c-9.122,-0.096 -15.01,-1.154 -21.141,-2.942l8.58,-36.195c2.681,0.537 6.703,1.877 10.188,1.877c4.949,0 9.082,-0.815 12.476,-2.37l11.964,-31.614l-1.288,-3.234l-11.352,-27.128l-7.51,-0l-2.145,-5.362l7.411,-0l-2.244,-5.363l-4.631,0l-2.145,-5.362l4.532,0Zm316.866,39.694c-4.284,-4.796 -7.918,-10.359 -10.9,-16.687c-5.445,-11.555 -8.167,-24.951 -8.167,-40.189c-0,-15.238 2.683,-28.634 8.049,-40.188c3.139,-6.76 7.048,-12.632 11.728,-17.615c2.895,-3.083 6.085,-5.826 9.57,-8.229c0.509,-0.352 1.024,-0.695 1.546,-1.032c6.933,-4.472 14.587,-7.373 22.963,-8.702c3.54,-0.562 7.21,-0.843 11.008,-0.843c17.36,0 31.327,6.698 41.901,20.095l0.474,-13.062c-0,-1.339 0.394,-2.386 1.183,-3.139c0.79,-0.754 1.815,-1.131 3.078,-1.131l32.906,0c1.262,0 2.288,0.377 3.077,1.131c0.789,0.753 1.184,1.8 1.184,3.139l-0,76.034l8.005,-0l0,5.362l-8.005,0l-0,26.811l2.643,0l-0,5.362l-2.643,0l-0,25.583c-0,1.34 -0.395,2.428 -1.184,3.266c-0.439,0.465 -0.95,0.801 -1.535,1.008l-0,2.316l-38.876,0l-3.217,-15.282l-0.833,0c-5.203,5.512 -11.12,9.597 -17.75,12.257c-8.082,4.255 -16.836,6.779 -26.46,6.779c-18.708,-0 -32.581,-9.347 -39.745,-23.044Zm79.049,-79.362c-0.303,-0.382 -0.616,-0.756 -0.938,-1.124c-5.287,-6.029 -12.192,-9.043 -20.714,-9.043c-8.523,0 -15.427,3.014 -20.714,9.043c-2.862,3.263 -4.949,7.066 -6.262,11.408c-1.113,3.68 -1.669,7.747 -1.669,12.202c0,9.712 2.644,17.625 7.931,23.737c1.016,1.174 2.092,2.236 3.228,3.185c4.773,3.988 10.602,5.982 17.486,5.982c5.167,0 9.739,-1.123 13.717,-3.37l0,-1.627l2.514,-0c1.605,-1.181 3.099,-2.571 4.483,-4.17c0.337,-0.39 0.664,-0.788 0.98,-1.193l-5.296,0l0,-5.362l5.362,0l0,-5.362l5.336,0c0.434,-1.51 0.777,-3.082 1.029,-4.717c0.346,-2.25 0.519,-4.617 0.519,-7.103c0,-9.119 -2.331,-16.615 -6.992,-22.486Zm406.641,50.393c-2.399,-8.491 -3.598,-17.793 -3.598,-27.907c0,-15.238 2.683,-28.634 8.049,-40.188c2.784,-5.994 6.173,-11.289 10.167,-15.886c3.705,-4.265 7.931,-7.928 12.677,-10.99c9.864,-6.363 21.188,-9.545 33.971,-9.545c17.361,0 31.328,6.698 41.902,20.095l0.473,-13.062c0,-1.339 0.395,-2.386 1.184,-3.139c0.789,-0.754 1.815,-1.131 3.077,-1.131l32.906,0c1.263,0 2.288,0.377 3.077,1.131c0.79,0.753 1.184,1.8 1.184,3.139l0,76.034l5.529,-0l0,5.362l-5.529,0l0,26.811l0.167,0l0,5.362l-0.167,0l0,25.583c0,1.34 -0.394,2.428 -1.184,3.266c-0.789,0.837 -1.814,1.255 -3.077,1.255l-0.934,0l-0,2.069l-38.876,0l-2.926,-13.898c-6.743,6.67 -14.629,11.053 -23.66,13.15c-6.728,2.863 -13.918,4.502 -21.674,4.502c-21.748,-0 -36.963,-12.633 -42.699,-30.046c-2.017,-3 -3.841,-6.228 -5.47,-9.685c-1.054,-2.238 -2.006,-4.544 -2.857,-6.92l-2.327,-0c-0,-1.877 -0,-3.486 0.268,-5.362l0.347,-0Zm91.638,-53.529c-5,-4.687 -11.257,-7.031 -18.772,-7.031c-8.522,0 -15.427,3.014 -20.714,9.043c-2.635,3.005 -4.614,6.467 -5.935,10.387c-1.33,3.945 -1.995,8.352 -1.995,13.223c-0,8.302 1.931,15.289 5.794,20.96c0.368,0.54 0.753,1.068 1.156,1.584l3.175,0c-0.392,0.784 -0.72,1.63 -0.984,2.51c5.116,5.234 11.617,7.85 19.503,7.85c4.126,0 7.873,-0.716 11.241,-2.149l0,-2.848l4.991,-0c1.066,-0.785 2.084,-1.662 3.052,-2.632l0,-2.731l-5.362,0l0,-5.362l5.362,0l0,-5.362l7.812,0c0.469,-1.629 0.831,-3.331 1.087,-5.106c0.308,-2.133 0.462,-4.371 0.462,-6.714c-0,-9.712 -2.644,-17.582 -7.931,-23.61c-0.625,-0.713 -1.272,-1.383 -1.942,-2.012Zm-756.425,58.891l-4.225,-0l0,-5.362l4.225,-0l-0,-5.363l-1.543,0l-0,-5.362l1.543,0l-0,-86.758c-0,-1.339 0.394,-2.386 1.183,-3.139c0.695,-0.664 1.574,-1.035 2.636,-1.115l-0,-2.558l38.876,0l2.9,15.844c4.371,-4.589 9.492,-8.227 15.363,-10.915c3.544,-1.624 7.292,-2.863 11.242,-3.719c4.337,-1.893 8.967,-3.332 13.928,-4.159l-8.043,-0c2.949,-0.536 6.166,-0.804 9.652,-0.804c3.485,-0 6.971,0.268 9.92,0.804l8.043,-0c19.572,3.217 30.833,16.623 35.122,37.535l5.363,0c0.536,1.877 0.804,3.486 1.072,5.362l-5.362,0c0.268,1.609 0.268,3.486 0.536,5.363l2.681,-0c0.268,1.608 0.536,3.485 0.536,5.362l-2.681,-0c0.268,2.413 0.268,4.826 0.268,7.507l0,24.666l10.725,-0l-0,5.362l-10.725,0l0,5.362l-5.221,0l-0,5.362l5.221,0l0,5.363l-5.221,-0l-0,5.362l5.221,-0l0,5.362l5.363,0l-0,5.362l-5.363,0l0,32.173l-47.723,0l0,-2.069l-0.583,0c-1.263,0 -2.289,-0.418 -3.078,-1.255c-0.789,-0.838 -1.184,-1.926 -1.184,-3.266l0,-36.307l-3.198,-0l-0,-5.362l3.198,-0l0,-5.363l-0.517,0l-0,-5.362l0.517,0l0,-20.698c0,-10.215 -1.578,-17.624 -4.734,-22.229c-3.157,-4.605 -8.207,-6.908 -15.151,-6.908c-7.102,0 -12.783,2.805 -17.045,8.415c-0.808,1.064 -1.54,2.217 -2.195,3.459l0,27.237l10.724,-0l0,5.362l-10.724,0l0,5.362l-4.196,0l-0,5.362l4.196,0l0,5.363l-4.196,-0l-0,5.362l4.196,-0l0,5.362l5.362,0l0,5.362l-5.362,0l0,32.173l-47.723,0l-0,-2.086c-1.062,-0.088 -1.941,-0.501 -2.636,-1.238c-0.789,-0.838 -1.183,-1.926 -1.183,-3.266l-0,-36.307Zm338.998,-134.055l-7.014,0l0,-5.362l7.014,0l0,-24.212c0,-1.34 0.395,-2.429 1.184,-3.266c0.671,-0.712 1.513,-1.121 2.527,-1.228l-0,-3.199l47.723,0l0,31.905l-4.088,0l0,5.362l4.088,0l0,14.21l-0.268,1.877l-3.82,-0l0,5.362l3.552,-0l-0.75,14.498c3.207,-2.714 6.646,-4.958 10.318,-6.733c6.349,-3.871 13.216,-6.574 20.192,-7.765l-8.043,-0c2.949,-0.536 5.898,-0.804 8.847,-0.804c3.486,-0 6.703,0.268 9.92,0.804l8.044,-0c20.108,3.217 35.122,16.891 43.165,37.535l5.362,0c0.537,1.609 1.341,3.486 1.877,5.362l-5.362,0c0.536,1.877 1.073,3.486 1.609,5.363l2.681,-0c0.268,1.876 0.804,3.485 1.072,5.362l-2.681,-0c1.341,6.971 2.145,14.746 2.145,22.789c0,3.217 0,6.435 -0.268,9.384l10.724,-0c-0.268,1.877 -0.268,3.753 -0.536,5.362l-10.724,0c-0.268,1.877 -0.537,3.486 -0.805,5.362l-0.29,0c-0.284,1.82 -0.615,3.607 -0.993,5.362l0.211,0c-0.268,1.877 -0.804,3.486 -1.341,5.363l-0.202,-0c-0.516,1.825 -1.087,3.612 -1.713,5.362l0.307,-0c-0.805,1.877 -1.341,3.753 -2.145,5.362l5.362,0c-0.804,1.877 -1.609,3.754 -2.413,5.362l-5.362,0c-12.065,23.326 -32.709,35.927 -53.89,35.927c-9.44,-0 -19.146,-3.457 -28.182,-10.09c-4.49,-2.665 -8.539,-6.005 -12.148,-10.018l-0.155,-0l-3.753,16.354l-37.267,0l-0,-2.097c-1.014,-0.106 -1.856,-0.515 -2.527,-1.227c-0.789,-0.838 -1.184,-1.926 -1.184,-3.266l0,-36.307l-4.333,-0l0,-5.362l4.333,-0l0,-5.363l-1.651,0l-0,-5.362l1.651,0l0,-96.519l-4.333,-0l0,-5.362l4.333,-0l0,-16.087Zm51.434,124.459c0.018,0.021 0.037,0.042 0.055,0.064c5.287,6.111 12.192,9.167 20.714,9.167c4.85,0 9.175,-0.989 12.977,-2.968c0.377,-0.628 0.742,-1.298 1.108,-2.029l2.147,-0c1.605,-1.181 3.099,-2.571 4.482,-4.17c0.338,-0.39 0.664,-0.788 0.98,-1.193l-2.515,0c0.537,-1.608 1.073,-3.485 1.609,-5.362l4.255,0c0.696,-1.422 1.29,-2.912 1.784,-4.471c0.043,-0.296 0.085,-0.594 0.128,-0.891l0.141,0c0.492,-1.708 0.866,-3.495 1.123,-5.362l-0.46,-0c0.268,-2.681 0.268,-5.362 0.268,-8.311c0,-2.423 -0.064,-4.717 -0.192,-6.891c-1.149,-5.809 -3.523,-10.764 -7.121,-14.866c-5.287,-6.029 -12.191,-9.043 -20.714,-9.043c-7.176,0 -13.205,2.138 -18.088,6.412l0,0.526l-0.583,-0c-0.706,0.655 -1.387,1.357 -2.043,2.105c-0.018,0.021 -0.037,0.042 -0.055,0.063l0,30.005l10.725,-0l-0,5.362l-10.725,0l0,5.362l-4.274,0c0.935,1.912 2.051,3.699 3.349,5.362l0.925,0l0,1.129Zm117.346,4.234c-2.677,-8.536 -4.015,-17.839 -4.015,-27.907c0,-14.903 2.999,-28.173 8.996,-39.811c5.997,-11.638 14.519,-20.68 25.567,-27.127c4.748,-2.771 9.831,-4.946 15.249,-6.526c6.032,-2.889 12.403,-4.873 18.903,-5.873l-8.043,-0c3.485,-0.536 6.971,-0.804 10.456,-0.804c4.022,-0 8.044,0.268 11.529,0.804l8.043,-0c23.862,3.485 39.68,17.695 47.724,37.535l5.362,0c0.536,1.609 1.34,3.486 1.877,5.362l-5.363,0c0.537,1.877 1.073,3.486 1.609,5.363l2.681,-0c0.268,1.876 0.805,3.485 1.073,5.362l-2.681,-0c1.072,5.898 1.608,12.333 1.608,19.036c0,4.826 -0.268,9.383 -0.804,13.137l10.724,-0c-0.268,2.145 -0.536,3.753 -0.804,5.362l-10.724,0c-0.269,0.804 -0.269,1.609 -0.537,2.145l-89.548,0l0.804,3.217l-4.628,0c0.665,1.938 1.441,3.725 2.328,5.362l3.909,0c0.804,1.877 1.877,3.754 2.949,5.363l-3.082,-0c0.56,0.612 1.145,1.19 1.757,1.732c1.694,1.503 3.562,2.713 5.605,3.63l0.01,-0c0.002,0.002 0.004,0.005 0.006,0.007c3.187,1.427 6.797,2.14 10.832,2.14c10.574,0 18.228,-3.516 22.963,-10.549c1.578,-1.842 3.472,-2.512 5.681,-2.01l33.616,12.057c1.736,0.502 2.604,1.591 2.604,3.265c-0,0.67 -0.237,1.507 -0.71,2.512c-1.656,3.288 -3.499,6.348 -5.531,9.181l6.95,12.621c-15.819,11.26 -36.731,17.427 -54.426,17.427c-10.283,-0 -19.991,-1.623 -28.835,-4.749c-7.661,-1.568 -14.706,-4.228 -21.136,-7.981c-11.048,-6.447 -19.57,-15.489 -25.567,-27.127c-1.136,-2.203 -2.163,-4.468 -3.084,-6.794l-1.275,-0c-0.804,-1.609 -1.34,-3.486 -1.877,-5.362l1.255,-0Zm55.207,-61.856c-0.7,0.868 -1.368,1.804 -2.035,2.872l2.681,-0c-1.073,1.608 -1.877,3.485 -2.681,5.362l-2.681,-0c-1.073,2.413 -1.877,5.362 -2.413,8.311l42.972,0c-1.412,-5.998 -3.864,-10.704 -7.356,-14.118c-4.025,-3.935 -9.114,-5.903 -15.269,-5.903c-1.749,-0 -3.413,0.134 -4.991,0.402c-0.207,0.189 -0.411,0.384 -0.61,0.583l-1.987,0c-2.037,0.577 -3.914,1.408 -5.63,2.491Zm283.907,51.131c-0.07,-1.914 -0.106,-3.874 -0.106,-5.879l0,-42.197l-16.571,-0c-1.263,-0 -2.288,-0.419 -3.077,-1.256c-0.79,-0.838 -1.184,-1.926 -1.184,-3.266l-0,-33.406c-0,-1.207 0.32,-2.209 0.96,-3.008l-0,-2.681l19.872,-1.581l0,-3.245l-4.054,-0l0.805,-5.362l3.249,-0l0,-16.087l-3.785,0l0.804,-5.362l2.981,0l0,-1.858c0,-1.339 0.395,-2.428 1.184,-3.265c0.789,-0.837 1.815,-1.256 3.077,-1.256l4.28,0l0.543,-4.345l39.412,-0l-0,10.724l-1.15,0l0,5.362l1.15,0l-0,16.087l-1.15,-0l0,5.362l1.15,-0l-0,2.949l35.926,0l0,34.586l5.363,0l-0,2.681l-10.48,0l0,3.705c0,1.34 -0.395,2.428 -1.184,3.266c-0.789,0.837 -1.815,1.256 -3.077,1.256l-23.867,-0l-0,5.179l-2.681,-0l-0,32.173l10.724,-0l0,5.362l-10.724,0l-0,5.362l-1.141,0c0.031,1.956 0.145,3.744 0.343,5.362l0.798,0c0.268,1.877 0.536,3.754 1.072,5.363l-0.71,-0c0.284,0.826 0.609,1.571 0.974,2.235c1.657,3.014 4.301,4.521 7.931,4.521c1.578,-0 2.959,-0.419 4.142,-1.256c1.184,-0.837 2.328,-2.261 3.433,-4.27c1.105,-1.172 2.052,-1.758 2.841,-1.758c0.631,-0 1.42,0.251 2.367,0.753l26.514,12.057c1.736,0.837 2.604,2.093 2.604,3.767c-0,0.67 -0.316,1.675 -0.947,3.014c-3.106,6.592 -7.062,12.085 -11.867,16.479l2.398,10.841c-8.043,2.413 -19.035,5.63 -34.586,5.63c-28.955,-0 -44.774,-13.942 -50.94,-35.927l0.552,0c-0.541,-1.721 -1.031,-3.509 -1.469,-5.362l-0.156,0c-0.268,-1.609 -0.804,-3.485 -1.072,-5.362l-8.044,-0c-0.268,-1.877 -0.268,-3.486 -0.536,-5.362l7.932,-0c-0.21,-1.742 -0.385,-3.529 -0.523,-5.363l-4.996,0l0,-5.362l4.696,0Zm189.865,56.652c-9.212,3.899 -20.48,6.086 -33.695,6.086c-19.84,-0 -43.166,-8.58 -58.716,-21.449l9.465,-13.45c-1.069,-2.173 -2.023,-4.454 -2.863,-6.842c-0.158,-0.335 -0.237,-0.921 -0.237,-1.758c0,-1.675 1.026,-2.763 3.078,-3.265l0.661,-0.148l3.033,-4.297c1.254,0.94 2.508,1.881 3.815,2.767l23.976,-5.355l1.42,-0.251c1.421,-0 2.762,0.92 4.025,2.762c2.209,3.852 5.129,6.782 8.759,8.792c3.63,2.009 7.733,3.014 12.31,3.014c4.042,-0 7.233,-0.603 9.571,-1.809l-0.602,0c0.804,-1.34 1.34,-3.485 1.34,-5.362l-8.043,-0l0,-0.536c0,-1.877 -0.536,-3.486 -1.608,-4.826l8.043,-0c-0.982,-1.571 -2.539,-2.855 -4.356,-4.061c-1.19,-0.44 -2.513,-0.874 -3.97,-1.302l-3.471,0c-1.427,-0.832 -3.064,-1.611 -4.843,-2.385c-17.743,-5.133 -30.51,-12.74 -38.303,-22.82c-6.144,-5.9 -10.742,-13.322 -12.084,-23.054l2.681,-0c-0.269,-1.609 -0.537,-3.486 -0.537,-5.362l-2.681,-0l0,-0.805c0,-1.608 0,-2.949 0.268,-4.558l3.528,0c0.222,-1.832 0.557,-3.619 1.005,-5.362l-3.728,0c4.289,-20.108 20.912,-34.05 45.846,-37.535l-8.043,-0c3.754,-0.536 7.775,-0.804 12.065,-0.804c4.022,-0 8.043,0.268 11.797,0.804l8.043,-0c17.963,2.413 31.905,10.456 42.629,18.768l-3.59,4.834c3.451,4.641 6.272,10.075 8.462,16.301c0.158,0.502 0.316,1.088 0.474,1.758c-0,1.842 -1.105,3.014 -3.315,3.516l-30.538,7.536l-0.947,-0c-1.736,-0 -3.077,-1.005 -4.024,-3.015c-2.052,-3.516 -4.459,-6.153 -7.221,-7.912c-2.761,-1.758 -6.115,-2.637 -10.061,-2.637c-3.314,0 -5.997,0.628 -8.048,1.884c-2.052,1.256 -3.078,3.14 -3.078,5.651c-0,2.512 1.263,4.689 3.788,6.531c2.525,1.842 6.47,3.433 11.836,4.772l4.972,1.256c17.833,4.856 30.38,11.178 37.64,18.964c2.144,2.299 3.971,4.829 5.482,7.588l2.19,-0c1.341,1.609 2.413,3.485 3.217,5.362l-2.975,0c1.983,5.387 2.975,11.494 2.975,18.322c0,9.377 -2.564,17.582 -7.693,24.615c-5.129,7.033 -12.231,12.475 -21.306,16.326c-2.507,1.064 -5.113,1.981 -7.818,2.751Z" style="fill:#fff;"/><rect x="1607.22" y="146.42" width="39.059" height="39.059" style="fill:#fff;"/><rect x="1607.22" y="252.451" width="39.059" height="39.059" style="fill:#fff;"/><g><path d="M648.382,336.139c-0.18,0 -0.348,-0.079 -0.506,-0.236c-0.157,-0.157 -0.235,-0.325 -0.235,-0.505l-0,-4.042c-0,-0.225 0.067,-0.404 0.202,-0.539c0.134,-0.135 0.314,-0.202 0.539,-0.202l21.22,-0c0.494,-0 0.741,0.247 0.741,0.741l0,4.042c0,0.225 -0.067,0.404 -0.202,0.539c-0.135,0.135 -0.314,0.202 -0.539,0.202l-21.22,0Z" style="fill:#fff;fill-rule:nonzero;"/><path d="M704.392,353.49c-0.4,-0 -0.6,-0.2 -0.6,-0.6l-0,-37.65c-0,-0.367 0.2,-0.55 0.6,-0.55l3.25,-0c0.4,-0 0.6,0.183 0.6,0.55l-0,37.65c-0,0.4 -0.2,0.6 -0.6,0.6l-3.25,-0Z" style="fill:#fff;fill-rule:nonzero;"/><path d="M742.692,353.49c-0.4,-0 -0.6,-0.2 -0.6,-0.6l-0,-25.55c-0,-0.367 0.2,-0.55 0.6,-0.55l2.7,-0c0.4,-0 0.6,0.183 0.6,0.55l0.2,4.25c0.966,-1.7 2.325,-3.009 4.075,-3.925c1.75,-0.917 3.575,-1.375 5.475,-1.375c3,-0 5.341,0.866 7.025,2.6c1.683,1.733 2.525,4.15 2.525,7.25l-0,16.75c-0,0.4 -0.167,0.6 -0.5,0.6l-3.1,-0c-0.4,-0 -0.6,-0.2 -0.6,-0.6l-0,-15c-0,-2.567 -0.525,-4.492 -1.575,-5.775c-1.05,-1.284 -2.675,-1.925 -4.875,-1.925c-1.334,-0 -2.642,0.341 -3.925,1.025c-1.284,0.683 -2.334,1.716 -3.15,3.1c-0.817,1.383 -1.225,3.075 -1.225,5.075l-0,13.5c-0,0.4 -0.184,0.6 -0.55,0.6l-3.1,-0Z" style="fill:#fff;fill-rule:nonzero;"/><path d="M800.592,353.49c-0.4,-0 -0.6,-0.2 -0.6,-0.6l-0,-22.3l-4.25,-0c-0.4,-0 -0.6,-0.167 -0.6,-0.5l-0,-2.75c-0,-0.367 0.2,-0.55 0.6,-0.55l4.25,-0l-0,-3.5c-0,-3.1 0.758,-5.509 2.275,-7.225c1.516,-1.717 3.525,-2.575 6.025,-2.575c3.633,-0 6.266,1.733 7.9,5.2l0.05,0.25c-0,0.233 -0.134,0.4 -0.4,0.5l-2.45,1l-0.25,0.05c-0.2,-0 -0.367,-0.117 -0.5,-0.35c-0.9,-1.834 -2.267,-2.75 -4.1,-2.75c-1.4,-0 -2.467,0.5 -3.2,1.5c-0.734,1 -1.1,2.5 -1.1,4.5l-0,3.4l7.55,-0c0.366,-0 0.55,0.183 0.55,0.55l-0,2.75c-0,0.333 -0.184,0.5 -0.55,0.5l-7.55,-0l-0,22.3c-0,0.4 -0.184,0.6 -0.55,0.6l-3.1,-0Z" style="fill:#fff;fill-rule:nonzero;"/><path d="M847.242,320.79c-0.8,-0 -1.467,-0.25 -2,-0.75c-0.534,-0.5 -0.8,-1.15 -0.8,-1.95c-0,-0.8 0.266,-1.45 0.8,-1.95c0.533,-0.5 1.2,-0.75 2,-0.75c0.8,-0 1.466,0.25 2,0.75c0.533,0.5 0.8,1.15 0.8,1.95c-0,0.8 -0.267,1.45 -0.8,1.95c-0.534,0.5 -1.2,0.75 -2,0.75Zm-1.55,32.7c-0.4,-0 -0.6,-0.2 -0.6,-0.6l-0,-25.55c-0,-0.367 0.2,-0.55 0.6,-0.55l3.1,-0c0.366,-0 0.55,0.183 0.55,0.55l-0,25.55c-0,0.4 -0.184,0.6 -0.55,0.6l-3.1,-0Z" style="fill:#fff;fill-rule:nonzero;"/><path d="M883.142,353.49c-0.4,-0 -0.6,-0.2 -0.6,-0.6l-0,-25.55c-0,-0.367 0.2,-0.55 0.6,-0.55l2.7,-0c0.4,-0 0.6,0.183 0.6,0.55l0.2,4.25c0.966,-1.7 2.325,-3.009 4.075,-3.925c1.75,-0.917 3.575,-1.375 5.475,-1.375c3,-0 5.341,0.866 7.025,2.6c1.683,1.733 2.525,4.15 2.525,7.25l-0,16.75c-0,0.4 -0.167,0.6 -0.5,0.6l-3.1,-0c-0.4,-0 -0.6,-0.2 -0.6,-0.6l-0,-15c-0,-2.567 -0.525,-4.492 -1.575,-5.775c-1.05,-1.284 -2.675,-1.925 -4.875,-1.925c-1.334,-0 -2.642,0.341 -3.925,1.025c-1.284,0.683 -2.334,1.716 -3.15,3.1c-0.817,1.383 -1.225,3.075 -1.225,5.075l-0,13.5c-0,0.4 -0.184,0.6 -0.55,0.6l-3.1,-0Z" style="fill:#fff;fill-rule:nonzero;"/><path d="M940.992,320.79c-0.8,-0 -1.467,-0.25 -2,-0.75c-0.534,-0.5 -0.8,-1.15 -0.8,-1.95c-0,-0.8 0.266,-1.45 0.8,-1.95c0.533,-0.5 1.2,-0.75 2,-0.75c0.8,-0 1.466,0.25 2,0.75c0.533,0.5 0.8,1.15 0.8,1.95c-0,0.8 -0.267,1.45 -0.8,1.95c-0.534,0.5 -1.2,0.75 -2,0.75Zm-1.55,32.7c-0.4,-0 -0.6,-0.2 -0.6,-0.6l-0,-25.55c-0,-0.367 0.2,-0.55 0.6,-0.55l3.1,-0c0.366,-0 0.55,0.183 0.55,0.55l-0,25.55c-0,0.4 -0.184,0.6 -0.55,0.6l-3.1,-0Z" style="fill:#fff;fill-rule:nonzero;"/><path d="M985.542,354.04c-2.467,-0 -4.367,-0.809 -5.7,-2.425c-1.334,-1.617 -2,-4.075 -2,-7.375l-0,-13.65l-4.7,-0c-0.167,-0 -0.3,-0.05 -0.4,-0.15c-0.1,-0.1 -0.15,-0.217 -0.15,-0.35l-0,-2.75c-0,-0.167 0.05,-0.3 0.15,-0.4c0.1,-0.1 0.233,-0.15 0.4,-0.15l4.7,-0l-0,-8.2c-0,-0.334 0.183,-0.5 0.55,-0.5l3.1,-0c0.166,-0 0.308,0.05 0.425,0.15c0.116,0.1 0.175,0.216 0.175,0.35l-0,8.2l7.4,-0c0.333,-0 0.5,0.183 0.5,0.55l-0,2.75c-0,0.333 -0.167,0.5 -0.5,0.5l-7.4,-0l-0,13.75c-0,2 0.308,3.458 0.925,4.375c0.616,0.916 1.591,1.375 2.925,1.375c1.533,-0 2.683,-0.8 3.45,-2.4c0.166,-0.367 0.4,-0.467 0.7,-0.3l2.4,1.05c0.2,0.1 0.3,0.25 0.3,0.45c-0,0.166 -0.034,0.3 -0.1,0.4c-1.567,3.166 -3.95,4.75 -7.15,4.75Z" style="fill:#fff;fill-rule:nonzero;"/><path d="M1032.89,354.04c-2.6,-0 -4.892,-0.6 -6.875,-1.8c-1.984,-1.2 -3.509,-2.85 -4.575,-4.95c-1.067,-2.1 -1.6,-4.484 -1.6,-7.15c-0,-2.667 0.533,-5.05 1.6,-7.15c1.066,-2.1 2.591,-3.742 4.575,-4.925c1.983,-1.184 4.275,-1.775 6.875,-1.775c3.833,-0 6.816,1.3 8.95,3.9c2.133,2.6 3.2,6.083 3.2,10.45c-0,0.333 -0.042,0.558 -0.125,0.675c-0.084,0.116 -0.242,0.175 -0.475,0.175l-20.2,-0c0.266,2.7 1.166,4.816 2.7,6.35c1.533,1.533 3.516,2.3 5.95,2.3c1.9,-0 3.483,-0.375 4.75,-1.125c1.266,-0.75 2.283,-1.859 3.05,-3.325c0.133,-0.3 0.383,-0.4 0.75,-0.3l2.6,0.95c0.266,0.1 0.4,0.25 0.4,0.45c-0,0.066 -0.017,0.15 -0.05,0.25c-1.134,2.333 -2.684,4.083 -4.65,5.25c-1.967,1.166 -4.25,1.75 -6.85,1.75Zm-0,-23.95c-2.3,-0 -4.225,0.716 -5.775,2.15c-1.55,1.433 -2.492,3.4 -2.825,5.9l16.25,-0c-0.2,-2.467 -0.975,-4.425 -2.325,-5.875c-1.35,-1.45 -3.125,-2.175 -5.325,-2.175Z" style="fill:#fff;fill-rule:nonzero;"/><path d="M1101.23,336.139c-0.18,0 -0.348,-0.079 -0.505,-0.236c-0.157,-0.157 -0.236,-0.325 -0.236,-0.505l0,-4.042c0,-0.225 0.067,-0.404 0.202,-0.539c0.135,-0.135 0.315,-0.202 0.539,-0.202l21.221,-0c0.494,-0 0.741,0.247 0.741,0.741l-0,4.042c-0,0.225 -0.068,0.404 -0.202,0.539c-0.135,0.135 -0.315,0.202 -0.539,0.202l-21.221,0Z" style="fill:#fff;fill-rule:nonzero;"/></g></g></svg>